<?xml version="1.0" encoding="utf-8"?>
<!-- Generator: Adobe Illustrator 23.0.1, SVG Export Plug-In . SVG Version: 6.00 Build 0)  -->
<svg version="1.1" id="Layer_1" xmlns="http://www.w3.org/2000/svg" xmlns:xlink="http://www.w3.org/1999/xlink" x="0px" y="0px"
	 viewBox="0 0 2500 1406" style="enable-background:new 0 0 2500 1406;" xml:space="preserve">
<style type="text/css">
	.st0{fill:url(#SVGID_1_);}
	.st1{fill:#FFFFFF;}
</style>
<radialGradient id="SVGID_1_" cx="1930.8116" cy="842.8835" r="1402.9681" gradientTransform="matrix(1.3019 0 0 -1.3019 -250.013 1796.2179)" gradientUnits="userSpaceOnUse">
	<stop  offset="7.000001e-03" style="stop-color:#FFFFFF"/>
	<stop  offset="3.000000e-02" style="stop-color:#CBFFFF"/>
	<stop  offset="5.700000e-02" style="stop-color:#96FFFF"/>
	<stop  offset="8.400000e-02" style="stop-color:#68FFFF"/>
	<stop  offset="0.111" style="stop-color:#43FFFF"/>
	<stop  offset="0.138" style="stop-color:#25FFFF"/>
	<stop  offset="0.165" style="stop-color:#11FFFF"/>
	<stop  offset="0.191" style="stop-color:#04FFFF"/>
	<stop  offset="0.216" style="stop-color:#00FFFF"/>
	<stop  offset="1" style="stop-color:#0000FF;stop-opacity:0"/>
</radialGradient>
<path class="st0" d="M2294.3,684.5c-78.1-192-210-355.6-381.6-473.4C1737.1,90.8,1531.2,27.1,1317.3,27.1
	c-353.7,0-681.9,175.6-877.8,470c-2.2,3.1-2.6,7.2-1.4,10.8c1.2,3.8,4.1,6.5,7.7,7.7l27.4,9.4c1.7,0.5,3.4,0.7,4.8,0.7
	c5,0,9.9-2.6,12.7-6.7C580.6,386.8,702.2,277,842.5,201c144.9-78.3,309-119.9,474.6-119.9c200.2,0,393.1,59.1,558.4,170.6
	c161.2,108.8,286.4,260.9,362.1,439.5c2.2,5.3,7.4,8.9,13.2,8.9h32.7c3.8,0,7.4-1.9,9.4-5C2295.3,691.9,2295.8,688.1,2294.3,684.5z
	 M478,517.5c-0.7,0-1.4-0.2-2.2-0.5C476.6,517.3,477.3,517.5,478,517.5h0.5H478z M2244.1,695.8c0.7,0.5,1.4,1,2.2,1.2
	C2245.5,696.5,2244.8,696.3,2244.1,695.8z"/>
<g>
	<path class="st1" d="M1766.9,905.1c-34.6,7.9-125.7,12.5-125.7,12.5l-11.5,36c0,0,45.4-3.8,78.6-0.5c0,0,10.8-1.2,12,12.3
		c0.5,12.5-1,26-1,26s-0.7,8.2-12.3,10.1c-12.5,2.2-98,5.3-98,5.3l-13.9,46.9c0,0-5,10.8,6.5,7.7c10.8-2.9,100.4-19.7,112.2-17.3
		c12.5,3.1,26.4,19.7,22.3,35.1c-4.8,18.7-94.2,75.9-148.7,71.8c0,0-28.6,1.9-52.9-36.8c-22.6-36.8,8.7-106.7,8.7-106.7
		s-14.2-32.7-3.8-43.5c0,0,6.2-5.5,24-7l21.9-45.4c0,0-25,1.7-39.9-16.6c-13.9-17.5-14.9-25.5-4.3-30.3
		c11.3-5.5,115.3-24.5,186.9-22.1c0,0,25-2.4,46.4,40.8C1774.1,883.5,1784.7,901,1766.9,905.1L1766.9,905.1z M1497.5,1079.5
		c-9.1,21.6-33.4,44.7-63.4,30.3c-29.8-14.4-77.1-111.3-77.1-111.3s-18-36-21.4-35.3c0,0-3.8-7-6.2,32.4s0.5,116.1-15.1,128.1
		c-14.9,12-32.9,7.2-42.3-7c-8.4-13.9-12-47.1-7.4-105.2c5.5-58.1,19-120.1,36.3-139.6c17.3-19.2,31.2-5.3,36.5-0.2
		c0,0,23.1,20.9,61.3,82.4l6.7,11.3c0,0,34.6,58.1,38.2,57.9c0,0,2.9,2.6,5.3,0.7c3.6-1,2.2-19.7,2.2-19.7s-7.2-63.2-38.7-170.4
		c0,0-4.8-13.5-1.4-26c3.1-12.7,15.9-6.7,15.9-6.7s49,24.5,72.6,104.3C1522.5,986.1,1506.7,1057.9,1497.5,1079.5L1497.5,1079.5z
		 M1256.8,874.6c-4.1,8.2-6.5,19.9-27.2,23.1c0,0-197.8,13.5-207.1,27.4c0,0-7,8.2,3.8,10.6c10.8,2.2,55.5,8.2,77.1,9.4
		c23.1,0.2,100.9,1,128.8,35.8c0,0,16.6,16.6,15.9,54.1c-0.7,38.4-7.4,51.9-22.3,65.8c-15.6,13-149.7,73-236.2-19.2
		c0,0-39.9-44.5,13.7-78.1c0,0,38.7-23.3,137,4.1c0,0,29.8,10.8,28.4,21.6c-1.7,11.5-24.5,23.8-57.7,23.1
		c-32.2-1-55.7-16.3-51.2-13.9c4.3,1.7-34.6-18.7-46.6-4.8c-12,12.7-9.1,20.7,2.6,28.6c30,17.1,146.1,11.1,180.7-27.4
		c0,0,13.7-15.6-7.2-28.4c-20.9-12-80.7-19.2-104-20.4c-22.3-1.2-105.5,0.2-117.5-21.9c0,0-12-14.9,1.2-57.2
		c13.9-44.2,110.8-61.3,152.6-65.1c0,0,115.1-4.1,136.2,19.5C1257.5,861.1,1260.4,866.6,1256.8,874.6L1256.8,874.6z M930,1133.8
		c-13.9,10.3-43.5,5.8-51.9-5.8c-8.4-10.3-11.3-51.4-9.6-115.8c1.7-65.1,3.1-145.9,17.1-158.6c14.9-13,24-1.7,29.8,7.2
		c6.2,8.7,13.7,18.3,15.4,38.7c1.4,20.4,6.2,127.6,6.2,127.6S943.2,1123.7,930,1133.8L930,1133.8z M960,788.3
		c-40.6,13.5-68.5,8.9-92-1.2c-10.3,18-16.3,23.5-24.3,24.7c-11.5,1.2-21.9-17.3-23.8-23.3c-1.9-4.6-7.4-12.3-0.7-30.5
		c-23.1-20.7-24.7-48.5-20.9-67.3c5.8-21.6,44.7-103.8,163.2-113.4c0,0,57.9-4.3,67.8,26.7h1.7c0,0,56.2,0.2,55,50.2
		C1085.2,704.4,1023.5,766.9,960,788.3L960,788.3z M849.5,677.1c-12,19.2-12.5,30.8-7,38.7c13.7-20.9,38.7-53.8,75.4-78.8
		C889.6,639.3,865.8,651.6,849.5,677.1z M1013.1,644.9c-37.2,5.5-94.9,55.5-122.3,96.4c42,7.7,116.3,4.8,149.2-62.2
		C1039.8,679,1055.7,637.4,1013.1,644.9L1013.1,644.9z M2024.2,1032c-22.3,38.9-85.1,120.1-168.7,101.2
		c-27.6,67-50.7,134.6-63.9,236c0,0-2.9,19.7-19.2,12.7c-16.1-5.8-43-32.7-48.3-69.9c-5.8-49,16.1-131.9,60.6-226.8
		c-13-21.1-21.9-51.4-14.2-94.4c0,0,11.3-79.8,91.3-151.9c0,0,9.6-8.4,15.1-5.8c6.2,2.6,3.4,28.6-1.7,41.1
		c-5,12.5-40.8,74.5-40.8,74.5s-22.3,41.8-16.1,74.7c42-64.6,137.7-195.1,197-154c19.9,14.2,29.1,45.2,29.1,78.6
		C2044.2,977.4,2037.2,1008.6,2024.2,1032L2024.2,1032z M2006.9,929.6c0,0-3.4-25.7-28.4,2.6c-21.6,23.8-60.6,68.7-92,129.5
		c32.9-3.6,64.6-21.6,74.2-30.8C1976.4,1017.1,2012.7,979.6,2006.9,929.6L2006.9,929.6z M840.4,962.3
		c-4.6,58.1-26.9,155.9-185.3,204.2c-104.5,31.5-203.3,16.3-257.1,2.6c-1.2,21.4-3.6,30.5-7,34.1c-4.6,4.6-38.7,24.3-57.4-3.6
		c-8.4-13.2-12.7-37.2-15.1-58.6c-121.1-55.7-176.8-136-179-139.6c-2.6-2.6-30.3-31.5-2.6-66.8c26-32,110.8-63.9,187.2-76.9
		c2.6-65.4,10.3-114.6,19.5-137.2c11.1-26.2,25-2.6,37,15.1c10.1,13.2,16.1,70.2,16.6,115.6c50-2.4,79.5,1.2,135.3,11.3
		c72.6,13.2,121.1,50.2,116.8,92.3c-3.1,41.3-41.1,58.4-55.5,59.6c-15.1,1.2-38.7-9.6-38.7-9.6c-16.1-7.7-1.2-14.4,18.3-22.8
		c21.1-10.3,16.3-20.9,16.3-20.9c-7.9-23.1-102.1-39.2-195.8-39.2c-0.5,51.7,2.2,137.4,3.4,187.4c65.6,12.5,114.6,10.1,114.6,10.1
		s239.3-6.7,246.5-159.5c7.4-153.1-238.6-299.9-420.5-346.5C156,565.8,53.2,599,44.3,603.5c-9.6,4.8-0.7,6.2-0.7,6.2
		s9.9,1.4,26.9,7.2c18,5.8,4.1,15.1,4.1,15.1c-31,9.9-65.8,3.6-72.6-10.6c-6.7-14.2,4.6-26.9,17.5-45.2c13-19.2,27.2-18.5,27.2-18.5
		c224.7-77.9,498.3,63,498.3,63C801.4,750.8,845.2,903.2,840.4,962.3L840.4,962.3z M162.3,954.3c-25.5,12.5-7.9,30.5-7.9,30.5
		c47.8,51.4,106.7,83.6,162.7,103.6c6.5-88.7,5.5-119.9,6.2-164.6C235.8,929.8,185.3,943.8,162.3,954.3z M2500,936.1v31.7
		c0,7-5.5,12.5-12.5,12.5h-151.1c0,7.9,0.2,14.9,0.2,21.4c0,46.9-1.9,85.1-6.5,128.1c-0.7,6.5-6,11.3-12.3,11.3h-32.7
		c-3.4,0-6.5-1.4-8.7-3.8c-2.2-2.4-3.4-5.8-2.9-9.1c4.6-42.8,6.7-80.5,6.7-126.4c0-6.7,0-13.7-0.2-21.4h-149.5
		c-7,0-12.5-5.5-12.5-12.5v-31.7c0-7,5.5-12.5,12.5-12.5H2278c-3.1-51.7-9.4-101.4-19.5-151.9c-0.5-3.1,0.2-6.2,2.2-8.7
		s4.8-3.8,7.9-3.8h35.3c5.5,0,10.1,3.8,11.3,9.4c9.9,52.1,16.1,102.8,19.2,155h153.1C2494.2,923.6,2500,929.4,2500,936.1L2500,936.1
		z"/>
</g>
</svg>
